{
	"asset":{
		"generator":"Khronos glTF Blender I/O v5.1.18",
		"version":"2.0"
	},
	"scene":0,
	"scenes":[
		{
			"name":"Scene",
			"nodes":[
				0
			]
		}
	],
	"nodes":[
		{
			"mesh":0,
			"name":"brass_pot_02"
		}
	],
	"materials":[
		{
			"doubleSided":true,
			"name":"brass_pot_02",
			"normalTexture":{
				"index":0
			},
			"pbrMetallicRoughness":{
				"baseColorTexture":{
					"index":1
				},
				"metallicRoughnessTexture":{
					"index":2
				}
			}
		},
		{
			"doubleSided":true,
			"name":"brass_pot_02.001",
			"normalTexture":{
				"index":3
			},
			"pbrMetallicRoughness":{
				"baseColorTexture":{
					"index":4
				},
				"metallicRoughnessTexture":{
					"index":5
				}
			}
		}
	],
	"meshes":[
		{
			"name":"brass_pot_02",
			"primitives":[
				{
					"attributes":{
						"POSITION":0,
						"NORMAL":1,
						"TEXCOORD_0":2
					},
					"indices":3,
					"material":0
				},
				{
					"attributes":{
						"POSITION":4,
						"NORMAL":5,
						"TEXCOORD_0":6
					},
					"indices":7,
					"material":1
				}
			]
		}
	],
	"textures":[
		{
			"sampler":0,
			"source":0
		},
		{
			"sampler":0,
			"source":1
		},
		{
			"sampler":0,
			"source":2
		},
		{
			"sampler":0,
			"source":0
		},
		{
			"sampler":0,
			"source":1
		},
		{
			"sampler":0,
			"source":2
		}
	],
	"images":[
		{
			"mimeType":"image/jpeg",
			"name":"brass_pot_02_nor_gl_1k",
			"uri":"brass_pot_02_nor_gl_1k.jpg"
		},
		{
			"mimeType":"image/jpeg",
			"name":"brass_pot_02_diff_1k",
			"uri":"brass_pot_02_diff_1k.jpg"
		},
		{
			"mimeType":"image/jpeg",
			"name":"brass_pot_02_arm_1k",
			"uri":"brass_pot_02_arm_1k.jpg"
		}
	],
	"accessors":[
		{
			"bufferView":0,
			"componentType":5126,
			"count":1791,
			"max":[
				0.18333452939987183,
				0.10836517810821533,
				0.15119366347789764
			],
			"min":[
				-0.18333452939987183,
				-0.0001811981201171875,
				-0.15109674632549286
			],
			"type":"VEC3"
		},
		{
			"bufferView":1,
			"componentType":5126,
			"count":1791,
			"type":"VEC3"
		},
		{
			"bufferView":2,
			"componentType":5126,
			"count":1791,
			"type":"VEC2"
		},
		{
			"bufferView":3,
			"componentType":5123,
			"count":8448,
			"type":"SCALAR"
		},
		{
			"bufferView":4,
			"componentType":5126,
			"count":345,
			"max":[
				0.1465875208377838,
				0.10469436645507812,
				0.14660516381263733
			],
			"min":[
				-0.14660876989364624,
				0.0041068196296691895,
				-0.1466088443994522
			],
			"type":"VEC3"
		},
		{
			"bufferView":5,
			"componentType":5126,
			"count":345,
			"type":"VEC3"
		},
		{
			"bufferView":6,
			"componentType":5126,
			"count":345,
			"type":"VEC2"
		},
		{
			"bufferView":7,
			"componentType":5123,
			"count":1584,
			"type":"SCALAR"
		}
	],
	"bufferViews":[
		{
			"buffer":0,
			"byteLength":21492,
			"byteOffset":0,
			"target":34962
		},
		{
			"buffer":0,
			"byteLength":21492,
			"byteOffset":21492,
			"target":34962
		},
		{
			"buffer":0,
			"byteLength":14328,
			"byteOffset":42984,
			"target":34962
		},
		{
			"buffer":0,
			"byteLength":16896,
			"byteOffset":57312,
			"target":34963
		},
		{
			"buffer":0,
			"byteLength":4140,
			"byteOffset":74208,
			"target":34962
		},
		{
			"buffer":0,
			"byteLength":4140,
			"byteOffset":78348,
			"target":34962
		},
		{
			"buffer":0,
			"byteLength":2760,
			"byteOffset":82488,
			"target":34962
		},
		{
			"buffer":0,
			"byteLength":3168,
			"byteOffset":85248,
			"target":34963
		}
	],
	"samplers":[
		{
			"magFilter":9729,
			"minFilter":9987
		}
	],
	"buffers":[
		{
			"byteLength":88416,
			"uri":"brass_pot_02_1k-separated.bin"
		}
	]
}
